<svg width="75" height="76" viewBox="0 0 75 76" fill="none" xmlns="http://www.w3.org/2000/svg">
<rect x="0.944702" width="73.6039" height="76" rx="13" fill="url(#paint0_linear_1_210)"/>
<path d="M62.2294 11.2973L57.9149 61.205L38.5206 66.7568L19.1798 61.2128L14.8698 11.2973H62.2294Z" fill="white"/>
<path d="M38.5496 62.5133L54.2211 58.0271L57.9082 15.3787H38.5496V62.5133Z" fill="#D1DFFF"/>
<path d="M38.5496 33.8916H24.7504L25.2818 40.0135H38.5496V33.8916Z" fill="#2965F1"/>
<path d="M38.5496 21.5007H38.5291H23.6826L24.2216 27.6227H38.5496V21.5007Z" fill="#2965F1"/>
<path d="M25.5467 43.0746L26.3774 52.6869L38.5223 56.1682L38.5496 56.1603V49.7909L38.5236 49.7981L31.9205 47.9571L31.4984 43.0746H28.2899H25.5467Z" fill="#2965F1"/>
<path d="M45.8299 40.0135L45.1417 47.9532L38.5291 49.7961V56.1652L50.6837 52.6869L50.7729 51.6526L52.1662 35.5355L52.3108 33.8916L53.3812 21.5007H38.5291V27.6227H46.8836L46.3441 33.8916H38.5291V40.0135H45.8299Z" fill="#2965F1"/>
<defs>
<linearGradient id="paint0_linear_1_210" x1="78.0299" y1="-3.59459" x2="2.56574" y2="69.9876" gradientUnits="userSpaceOnUse">
<stop stop-color="#264DE4"/>
<stop offset="1" stop-color="#78A1FF"/>
</linearGradient>
</defs>
</svg>
