<svg width="74" height="76" viewBox="0 0 74 76" fill="none" xmlns="http://www.w3.org/2000/svg">
<rect x="0.396072" width="73.6039" height="76" rx="13" fill="url(#paint0_linear_1_211)"/>
<path fill-rule="evenodd" clip-rule="evenodd" d="M37.2211 11.2592C21.8079 11.2592 9.3479 23.0853 9.3479 37.7158C9.3479 49.4107 17.3315 59.3102 28.4068 62.814C29.7915 63.0774 30.2987 62.2447 30.2987 61.5443C30.2987 60.9309 30.2531 58.8286 30.2531 56.6381C22.4994 58.2152 20.8848 53.4843 20.8848 53.4843C19.6387 50.4181 17.7925 49.63 17.7925 49.63C15.2547 48.0093 17.9773 48.0093 17.9773 48.0093C20.7924 48.1846 22.2695 50.725 22.2695 50.725C24.761 54.7545 28.7759 53.616 30.3911 52.915C30.6216 51.2067 31.3605 50.0241 32.145 49.3672C25.9609 48.7538 19.4545 46.4762 19.4545 36.3139C19.4545 33.4229 20.5613 31.0577 22.3151 29.2182C22.0384 28.5613 21.0691 25.8451 22.5924 22.2097C22.5924 22.2097 24.9459 21.5087 30.2525 24.9254C32.5244 24.3462 34.8675 24.0516 37.2211 24.0492C39.5746 24.0492 41.9737 24.3561 44.1891 24.9254C49.4963 21.5087 51.8497 22.2097 51.8497 22.2097C53.3731 25.8451 52.4032 28.5613 52.1264 29.2182C53.9265 31.0577 54.9877 33.4229 54.9877 36.3139C54.9877 46.4762 48.4813 48.7098 42.251 49.3672C43.2665 50.1993 44.1429 51.7759 44.1429 54.2729C44.1429 57.8207 44.0972 60.6681 44.0972 61.5437C44.0972 62.2447 44.605 63.0774 45.9891 62.8145C57.0645 59.3097 65.048 49.4107 65.048 37.7158C65.0937 23.0853 52.588 11.2592 37.2211 11.2592Z" fill="white"/>
<defs>
<linearGradient id="paint0_linear_1_211" x1="-25.9621" y1="-34.9189" x2="74.5367" y2="75.8879" gradientUnits="userSpaceOnUse">
<stop stop-color="#0D0F12"/>
<stop offset="1" stop-color="#292929"/>
</linearGradient>
</defs>
</svg>
