<svg width="74" height="76" viewBox="0 0 74 76" fill="none" xmlns="http://www.w3.org/2000/svg">
<rect width="73.6039" height="76" rx="13" fill="url(#paint0_linear_11_93)"/>
<path d="M19 20.4141C19 19.1347 19.4392 18.0791 20.3176 17.2475C21.1959 16.4158 22.3379 16 23.7432 16C25.1236 16 26.2403 16.4094 27.0936 17.2283C27.972 18.0727 28.4112 19.173 28.4112 20.5293C28.4112 21.7576 27.9846 22.7811 27.1313 23.6C26.2529 24.4444 25.0985 24.8667 23.668 24.8667H23.6303C22.25 24.8667 21.1332 24.4444 20.2799 23.6C19.4266 22.7556 19 21.6936 19 20.4141ZM19.4894 54V28.3596H27.8465V54H19.4894ZM32.4768 54H40.834V39.6828C40.834 38.7872 40.9344 38.0963 41.1351 37.6101C41.4865 36.7401 42.0198 36.0044 42.735 35.403C43.4503 34.8017 44.3475 34.501 45.4266 34.501C48.2375 34.501 49.6429 36.433 49.6429 40.297V54H58V39.299C58 35.5118 57.1216 32.6394 55.3649 30.6818C53.6081 28.7242 51.2867 27.7455 48.4006 27.7455C45.1631 27.7455 42.6409 29.1657 40.834 32.0061V32.0828H40.7963L40.834 32.0061V28.3596H32.4768C32.527 29.1784 32.5521 31.7246 32.5521 35.998C32.5521 40.2714 32.527 46.272 32.4768 54Z" fill="white"/>
<defs>
<linearGradient id="paint0_linear_11_93" x1="8.5" y1="3.5" x2="65.9579" y2="82.8409" gradientUnits="userSpaceOnUse">
<stop stop-color="#0A66C2"/>
<stop offset="1" stop-color="#78A1FF"/>
</linearGradient>
</defs>
</svg>
