<svg width="75" height="76" viewBox="0 0 75 76" fill="none" xmlns="http://www.w3.org/2000/svg">
<path d="M0 13C0 5.8203 5.8203 0 13 0H62C69.1797 0 75 5.8203 75 13V63C75 70.1797 69.1797 76 62 76H13C5.8203 76 0 70.1797 0 63V13Z" fill="url(#paint0_linear_11_90)"/>
<path d="M59.8108 44.7535C59.2991 41.8258 57.2192 39.3678 51.0593 37.0744C48.9196 36.1717 46.534 35.5253 45.823 34.037C45.5705 33.1709 45.5373 32.6829 45.6967 32.1584C46.1552 30.4567 48.368 29.926 50.1223 30.414C51.252 30.7616 52.3218 31.5607 52.9664 32.8354C55.9832 31.0423 55.9766 31.0544 58.0831 29.8224C57.3122 28.7245 56.9002 28.2182 56.3952 27.7486C54.5811 25.8883 52.1092 24.9307 48.1554 25.0039C47.471 25.0832 46.7799 25.1685 46.0954 25.2479C44.1219 25.7053 42.2413 26.6568 41.1383 27.9316C37.829 31.3777 38.7726 37.4099 42.7995 39.8924C46.7666 42.6249 52.5943 43.247 53.3385 45.8027C54.0628 48.9316 50.8334 49.9441 47.6238 49.5843C45.2582 49.1329 43.9425 48.0289 42.5204 46.0222C39.9024 47.4129 39.9024 47.4129 37.2111 48.834C37.849 50.1149 38.5201 50.6943 39.59 51.8044C44.6535 56.5192 57.3255 56.2874 59.5982 49.1512C59.6912 48.9072 60.3026 47.2726 59.8108 44.7535ZM33.6294 25.382H27.0907C27.0907 30.5664 27.0642 35.7143 27.0642 40.8987C27.0642 44.1985 27.2502 47.2238 26.6655 48.1509C25.7086 49.9745 23.23 49.7489 22.1003 49.3951C20.9508 48.8766 20.366 48.1386 19.6882 47.0957C19.5021 46.7968 19.3626 46.565 19.316 46.5467C17.5419 47.5409 15.7742 48.5412 14 49.5354C14.8839 51.2005 16.1862 52.6461 17.8541 53.5853C20.346 54.9577 23.6951 55.3785 27.1971 54.6405C29.4763 54.0306 31.4432 52.7681 32.4732 50.8468C33.9616 48.3277 33.6427 45.2781 33.6294 41.9051C33.6626 36.4035 33.6294 30.9019 33.6294 25.382Z" fill="white"/>
<defs>
<linearGradient id="paint0_linear_11_90" x1="88" y1="-30.3038" x2="16.0501" y2="63.8029" gradientUnits="userSpaceOnUse">
<stop stop-color="#FFDE00"/>
<stop offset="1" stop-color="#FFD88B"/>
</linearGradient>
</defs>
</svg>
