<?xml version="1.0" encoding="UTF-8"?>
<svg id="Calque_1" data-name="Calque 1" xmlns="http://www.w3.org/2000/svg" viewBox="0 0 144 144">
  <defs>
    <style>
      .cls-1 {
        fill: #2765af;
      }

      .cls-1, .cls-2, .cls-3 {
        stroke-width: 0px;
      }

      .cls-2 {
        fill: #0b0d19;
      }

      .cls-3 {
        fill: #fff;
      }
    </style>
  </defs>
  <rect class="cls-2" width="144" height="144"/>
  <g>
    <path class="cls-3" d="M32.2,104.73l6.91-65.46h15.88l-5.8,54.92h14.69l-1.11,10.54h-30.57Z"/>
    <path class="cls-3" d="M65.48,104.73l6.91-65.46h17.71c2.51,0,4.71.11,6.59.32,1.88.21,3.8.67,5.76,1.36,1.96.7,3.52,1.66,4.69,2.9,1.14,1.21,2,2.9,2.58,5.05.34,1.32.53,2.78.56,4.38,0,1.05-.08,2.16-.24,3.32-.98,7.42-4.65,11.75-11,12.99,3.68.34,6.39,1.86,8.14,4.54,1.38,2.13,2.06,4.88,2.06,8.25,0,.87-.04,1.78-.12,2.72-1.19,13.08-8.75,19.62-22.67,19.62h-20.97ZM82.51,93.75h2.34c2.94,0,5.09-.73,6.45-2.19,1.36-1.46,2.22-3.69,2.56-6.69.11-.95.16-1.83.16-2.65-.03-2.21-.41-3.82-1.15-4.82-1.01-1.4-3.02-2.09-6.04-2.09h-2.38l-1.95,18.44ZM85.53,65.21h2.26c2.94,0,4.99-.68,6.15-2.03,1.16-1.36,1.91-3.42,2.22-6.18.03-.34.04-.67.04-.99,0-1.71-.48-3.14-1.43-4.3-1.11-1.37-2.78-2.05-5-2.05h-2.62l-1.63,15.56Z"/>
  </g>
  <rect class="cls-1" x="12.91" y="75.94" width="20.82" height="9.23"/>
  <rect class="cls-1" x="110.27" y="75.66" width="20.82" height="9.23"/>
</svg>