<svg width="75" height="76" viewBox="0 0 75 76" fill="none" xmlns="http://www.w3.org/2000/svg">
<rect x="0.435318" width="73.6039" height="76" rx="13" fill="url(#paint0_linear_11_2)"/>
<path d="M42.5227 16.2416C40.0958 13.453 38.0059 10.6209 37.579 10.0327C37.534 9.98911 37.4666 9.98911 37.4217 10.0327C36.9947 10.6209 34.9049 13.453 32.478 16.2416C11.6471 41.9704 35.7588 59.3336 35.7588 59.3336L35.961 59.4643C36.1408 62.144 36.5902 66 36.5902 66H37.4891H38.3879C38.3879 66 38.8374 62.1657 39.0171 59.4643L39.2194 59.3119C39.2418 59.3119 63.3535 41.9704 42.5227 16.2416ZM37.4891 58.9414C37.4891 58.9414 36.4105 58.0482 36.1183 57.5907V57.5473L37.4217 29.5308C37.4217 29.4437 37.5565 29.4437 37.5565 29.5308L38.8598 57.5473V57.5907C38.5677 58.0482 37.4891 58.9414 37.4891 58.9414Z" fill="white"/>
<defs>
<linearGradient id="paint0_linear_11_2" x1="0.435318" y1="0" x2="111.778" y2="106.838" gradientUnits="userSpaceOnUse">
<stop stop-color="#5AE1FF"/>
<stop offset="1" stop-color="#7BEE5E"/>
</linearGradient>
</defs>
</svg>
