<svg width="75" height="76" viewBox="0 0 75 76" fill="none" xmlns="http://www.w3.org/2000/svg">
<rect x="0.423729" width="73.6039" height="76" rx="13" fill="url(#paint0_linear_1_214)"/>
<path d="M32.2643 39.824C31.4222 44.5077 30.307 47.8929 28.9187 50.026C27.849 51.6491 26.6656 52.4838 25.3683 52.4838C25.0269 52.4838 24.5945 52.3679 24.0938 52.1592V51.023C24.3442 51.0694 24.6173 51.0694 24.9587 51.0694C25.5504 51.0694 26.0511 50.9071 26.4152 50.5593C26.8476 50.142 27.0752 49.6782 27.0752 49.1681C27.0752 48.8203 26.8932 48.1016 26.5518 47.0118L24.2759 39.8008H26.3014L27.9401 45.2032C28.3042 46.4321 28.4635 47.29 28.3952 47.7769C29.2828 45.3424 29.9201 42.6759 30.2615 39.824H32.2643ZM23.2973 49.1449H21.2262C21.1579 45.5742 20.9531 42.2122 20.6117 39.0588H20.5889L17.4255 49.1449H15.8551L12.7144 39.0588H12.6916C12.464 42.0731 12.3047 45.4351 12.2592 49.1449H10.3702C10.484 44.6468 10.8026 40.4268 11.2806 36.5083H13.8523L16.8337 45.8061H16.8565L19.8607 36.5083H22.3186C22.8648 41.0992 23.1835 45.3192 23.2973 49.1449Z" fill="white"/>
<path d="M59.8708 49.1449H53.9762V36.5083H55.9563V47.5914H59.8708V49.1449ZM45.0547 46.6176C44.5541 45.7829 44.3037 44.4613 44.3037 42.6527C44.3037 39.4762 45.2596 37.8763 47.1486 37.8763C48.15 37.8763 48.8782 38.2473 49.3334 39.0124C49.8341 39.8471 50.0845 41.1456 50.0845 42.9541C50.0845 46.1539 49.1286 47.7769 47.2396 47.7769C46.261 47.7537 45.5327 47.3827 45.0547 46.6176ZM52.4286 49.4463L50.1527 48.3102C50.3576 48.1479 50.5396 47.9624 50.7217 47.7537C51.7003 46.5944 52.1783 44.8786 52.1783 42.6063C52.1783 38.4328 50.5624 36.3228 47.3534 36.3228C45.783 36.3228 44.5541 36.8561 43.6665 37.9227C42.6878 39.082 42.2099 40.7978 42.2099 43.0469C42.2099 45.2728 42.6423 46.8958 43.4844 47.9392C44.2582 48.8667 45.4416 49.3536 47.012 49.3536C47.6037 49.3536 48.15 49.284 48.6279 49.1217L51.5865 50.8839L52.4286 49.4463ZM41.345 45.6438C41.345 46.7103 40.9581 47.5914 40.1843 48.287C39.4105 48.9826 38.3864 49.3072 37.0891 49.3072C35.8829 49.3072 34.6995 48.913 33.5615 48.1247L34.085 47.0349C35.0636 47.545 35.9512 47.7769 36.7478 47.7769C37.4988 47.7769 38.0678 47.6146 38.5002 47.2668C38.9098 46.919 39.183 46.4553 39.183 45.8524C39.183 45.1105 38.6595 44.4613 37.7264 43.928C36.8615 43.441 35.9967 42.9309 35.1319 42.4208C34.1988 41.7253 33.7208 40.9601 33.7208 39.7312C33.7208 38.711 34.0622 37.8763 34.7677 37.2503C35.4733 36.6242 36.3836 36.2996 37.4988 36.2996C38.6595 36.2996 39.6836 36.6242 40.6395 37.2271L40.1616 38.3168C39.365 37.969 38.5685 37.7836 37.7719 37.7836C37.1347 37.7836 36.6567 37.9459 36.3153 38.2473C35.9739 38.5487 35.7691 38.9661 35.7691 39.453C35.7691 40.1949 36.2926 40.8442 37.2712 41.4006C38.1588 41.8876 39.934 42.9309 39.934 42.9309C40.8671 43.6729 41.345 44.4149 41.345 45.6438ZM61.2818 49.1449H61.6005V47.8697H62.0329V47.6146H60.8267V47.8697H61.2818V49.1449ZM63.7625 49.1449H64.0812V47.5914H63.626L63.2391 48.658L62.8294 47.5914H62.3743V49.1449H62.6701V47.9624H62.6929L63.1253 49.1449H63.3529L63.7853 47.9624V49.1449H63.7625Z" fill="white"/>
<path d="M43.3933 15.2C42.8699 15.2 42.4147 15.3855 42.1871 15.9884C41.7775 16.9854 42.7789 17.9592 43.1202 18.4693C43.3706 18.8171 43.712 19.2113 43.8713 19.6054C43.9851 19.8605 44.0078 20.1387 44.1216 20.417C44.372 21.0894 44.5768 21.8313 44.8954 22.4574C45.0547 22.782 45.2368 23.1066 45.4416 23.408C45.5554 23.5703 45.7603 23.6631 45.8058 23.9181C45.601 24.2195 45.5782 24.6833 45.4644 25.0543C44.9182 26.77 45.1458 28.9264 45.8968 30.1785C46.1472 30.5494 46.6934 31.4073 47.4672 31.0827C48.15 30.8045 47.9906 29.9466 48.1955 29.1814C48.241 28.9959 48.2182 28.88 48.3093 28.7641V28.7873C48.5141 29.2046 48.7189 29.622 48.9238 30.0625C49.3789 30.8045 50.1983 31.5928 50.8583 32.1029C51.2224 32.3812 51.4955 32.8449 51.9507 33.0304V32.984H51.9279C51.8369 32.8449 51.7003 32.7753 51.5865 32.6826C51.3134 32.4044 51.0176 32.0797 50.8127 31.7551C50.1755 30.8972 49.6293 29.9466 49.1286 28.9728C48.8782 28.509 48.6734 27.9757 48.4913 27.512C48.4003 27.3265 48.4003 27.0483 48.241 26.9555C48.0134 27.2801 47.6948 27.5816 47.5127 27.9989C47.2396 28.6481 47.1941 29.4597 47.103 30.3176C47.0348 30.3408 47.0803 30.3176 47.0348 30.3408C46.5568 30.2248 46.3975 29.7147 46.2154 29.2974C45.7603 28.2076 45.692 26.4686 46.0789 25.2166C46.1927 24.8919 46.6251 23.8949 46.443 23.5703C46.352 23.2689 46.0561 23.1066 45.8968 22.8747C45.692 22.5733 45.5099 22.2487 45.3506 21.9009C44.9865 21.043 44.8044 20.0924 44.4175 19.2345C44.2354 18.8403 43.9168 18.4229 43.6665 18.0519C43.3706 17.6346 43.0747 17.3564 42.8471 16.8694C42.7789 16.7071 42.6651 16.4289 42.7789 16.2434C42.8016 16.1275 42.8699 16.0811 42.9837 16.0347C43.1658 15.8724 43.7347 16.0811 43.9168 16.1738C44.463 16.4057 44.941 16.6144 45.3961 16.939C45.601 17.1013 45.8285 17.3795 46.1017 17.4491H46.4203C46.8982 17.565 47.4444 17.4723 47.8768 17.6114C48.6734 17.8665 49.3789 18.2606 50.0389 18.6548C52.019 19.9532 53.6348 21.7386 54.7045 23.8717C54.8866 24.2195 54.9549 24.5441 55.1142 24.9151C55.4328 25.6571 55.8197 26.4222 56.1383 27.1642C56.457 27.883 56.7528 28.625 57.208 29.2046C57.4356 29.5292 58.3232 29.6915 58.7328 29.8538C59.0287 29.993 59.5066 30.1089 59.757 30.2712C60.2577 30.5958 60.7811 30.9668 61.2591 31.3146C61.5094 31.5001 62.2377 31.8711 62.2832 32.1957C61.077 32.1725 60.1666 32.2884 59.3701 32.613C59.1425 32.7058 58.7784 32.7058 58.7556 32.984C58.8694 33.0999 58.8922 33.3086 59.0059 33.4709C59.188 33.7724 59.5066 34.1897 59.7797 34.3984C60.0984 34.6534 60.417 34.8853 60.7356 35.094C61.3274 35.465 61.9874 35.6736 62.5336 36.0446C62.875 36.2533 63.1936 36.5315 63.5122 36.7634C63.6715 36.8793 63.7853 37.088 63.9901 37.1576V37.1112C63.8763 36.9721 63.8536 36.7866 63.7398 36.6243C63.5805 36.462 63.4439 36.346 63.2846 36.1837C62.8522 35.5809 62.3287 35.0708 61.737 34.6302C61.2591 34.2825 60.2122 33.8419 60.0073 33.2623L59.9846 33.2391C60.3032 33.2159 60.7129 33.0768 61.0087 32.984C61.5094 32.8449 61.9874 32.8681 62.5108 32.729C62.7612 32.6594 62.9888 32.5898 63.2391 32.5203V32.4971C62.966 32.2189 62.7839 31.8479 62.4881 31.5928C61.737 30.9204 60.8949 30.2712 60.0301 29.7147C59.5749 29.4133 58.9604 29.2046 58.4825 28.9496C58.3004 28.8568 58.0046 28.8105 57.8908 28.6481C57.6177 28.3004 57.4811 27.8598 57.2763 27.4656C56.8439 26.5846 56.4342 25.7035 56.0473 24.7992C55.7742 24.1964 55.6149 23.6167 55.2735 23.0602C53.7259 20.4633 52.0645 18.8867 49.4927 17.3332C48.9465 17.0086 48.2865 16.8694 47.581 16.7071C47.2168 16.6839 46.8299 16.6608 46.4658 16.6376C46.2155 16.5216 45.9879 16.2434 45.783 16.1043C45.3279 15.8029 44.2809 15.2232 43.3933 15.2ZM47.0803 18.9794C46.8299 18.9794 46.6479 19.0026 46.4658 19.049V19.0721H46.4886C46.6024 19.3272 46.8299 19.4895 46.9665 19.6982C47.0803 19.9532 47.1941 20.1851 47.3079 20.4401L47.3306 20.417C47.5355 20.2547 47.6493 20.0228 47.6493 19.6518C47.5582 19.5359 47.5355 19.4431 47.4672 19.3272C47.3989 19.1881 47.2168 19.0953 47.0803 18.9794Z" fill="white"/>
<defs>
<linearGradient id="paint0_linear_1_214" x1="0.423727" y1="2.02667" x2="68.4136" y2="74.7391" gradientUnits="userSpaceOnUse">
<stop stop-color="#00758F"/>
<stop offset="1" stop-color="#F2B98F"/>
</linearGradient>
</defs>
</svg>
