<svg width="75" height="76" viewBox="0 0 75 76" fill="none" xmlns="http://www.w3.org/2000/svg">
<rect x="0.938446" width="73.6039" height="76" rx="13" fill="url(#paint0_linear_1_207)"/>
<path d="M35.8931 9.85574C37.286 9.05129 39.0803 9.02691 40.4496 9.85574C47.3905 13.9024 54.3314 17.949 61.2724 21.9956C62.5709 22.7513 63.4444 24.2627 63.4444 25.7984V50.1756C63.4444 51.7845 62.5 53.3203 61.1071 54.076C54.1898 58.0982 47.2725 62.1448 40.3551 66.1671C38.9386 66.9959 37.1207 66.9471 35.7514 66.0452C33.6739 64.8019 31.5963 63.5587 29.5187 62.3155C29.0938 62.0473 28.6216 61.8523 28.3147 61.4135C28.5744 61.0478 29.0466 60.9991 29.4479 60.8285C30.3214 60.5359 31.1005 60.0971 31.9032 59.634C32.1157 59.4877 32.3518 59.5365 32.5407 59.6827C34.3113 60.7309 36.082 61.8035 37.8526 62.8518C38.2303 63.0712 38.6081 62.7786 38.9386 62.5836C45.7379 58.6101 52.5372 54.661 59.3129 50.7119C59.5726 50.59 59.7142 50.3219 59.6906 50.0294C59.6906 41.9849 59.6906 33.9404 59.6906 25.8959C59.7142 25.579 59.549 25.2865 59.2656 25.1402C52.3719 21.1911 45.4782 17.1689 38.5845 13.1467C38.3484 12.976 38.0179 12.976 37.7818 13.1467C30.8881 17.1689 23.9943 21.1911 17.1006 25.189C16.8173 25.3109 16.6284 25.6034 16.652 25.9447C16.652 33.9892 16.652 42.0336 16.652 50.0781C16.6284 50.3706 16.7701 50.6388 17.0298 50.7607C18.8712 51.8333 20.7127 52.9059 22.5542 53.9785C23.593 54.5635 24.8678 54.9048 26.0011 54.466C27.0162 54.1003 27.7245 53.0277 27.7009 51.9308C27.7009 43.9351 27.7009 35.9393 27.7009 27.9436C27.6773 27.578 28.0078 27.2854 28.3383 27.3342C29.2118 27.3342 30.109 27.3098 30.9825 27.3342C31.3602 27.3342 31.5963 27.6998 31.5491 28.0655C31.5491 36.11 31.5491 44.1544 31.5491 52.1989C31.5491 54.3441 30.6992 56.6843 28.7869 57.7325C26.426 59.0002 23.4985 58.732 21.1613 57.5132C19.1309 56.4649 17.195 55.2461 15.2119 54.1247C13.819 53.3934 12.8747 51.8333 12.8747 50.2244V25.8228C12.851 24.2383 13.7718 22.7025 15.1175 21.9712C22.0584 17.9246 28.9758 13.9024 35.8931 9.85574Z" fill="white"/>
<path d="M41.9369 26.7492C44.9588 26.5542 48.1932 26.6273 50.9082 28.163C53.0094 29.3332 54.1662 31.8196 54.2134 34.233C54.1662 34.5499 53.8357 34.7449 53.5288 34.7205C52.6553 34.7205 51.7817 34.7449 50.9082 34.7205C50.5305 34.7449 50.318 34.3792 50.2708 34.038C50.0111 32.8922 49.4209 31.7465 48.3585 31.1858C46.7531 30.357 44.8644 30.3814 43.1174 30.4058C41.8425 30.4789 40.4496 30.6008 39.3636 31.3808C38.5373 31.9659 38.2776 33.1604 38.5609 34.1355C38.8442 34.818 39.6233 35.0374 40.2371 35.2568C43.8728 36.2319 47.721 36.1344 51.286 37.4264C52.7733 37.9627 54.2134 38.9865 54.7092 40.571C55.3702 42.7162 55.0869 45.2758 53.5996 46.9822C52.3956 48.3961 50.6721 49.1762 48.9251 49.5906C46.6114 50.1269 44.227 50.1269 41.8661 49.9075C39.6705 49.6394 37.3569 49.0543 35.657 47.4942C34.1933 46.1778 33.485 44.1545 33.5559 42.1799C33.5795 41.8387 33.8864 41.6193 34.1933 41.6436C35.0668 41.6436 35.9639 41.6436 36.8375 41.6436C37.1916 41.6193 37.4513 41.9362 37.4749 42.2774C37.6402 43.3744 38.0415 44.5201 38.9622 45.1783C40.7565 46.3728 42.9993 46.2997 45.0533 46.3241C46.7531 46.2509 48.6654 46.2265 50.0583 45.0564C50.7902 44.3983 51.0026 43.2769 50.8138 42.3262C50.6013 41.5218 49.775 41.1561 49.0903 40.9123C45.5018 39.7422 41.6064 40.1566 38.0415 38.8403C36.6014 38.304 35.2085 37.3289 34.6419 35.7931C33.8628 33.6235 34.2169 30.942 35.8459 29.2844C37.4749 27.6024 39.7649 26.9686 41.9369 26.7492Z" fill="white"/>
<defs>
<linearGradient id="paint0_linear_1_207" x1="0.938446" y1="0" x2="112.281" y2="106.838" gradientUnits="userSpaceOnUse">
<stop stop-color="#4A8C01"/>
<stop offset="1" stop-color="#E1FFC0"/>
</linearGradient>
</defs>
</svg>
