<svg width="76" height="76" viewBox="0 0 76 76" fill="none" xmlns="http://www.w3.org/2000/svg">
<rect x="0.932205" width="74.5986" height="76" rx="13" fill="url(#paint0_linear_1_215)"/>
<path d="M14.4607 30.4H23.0379C25.5554 30.4205 27.3797 31.1257 28.5107 32.5143C29.6418 33.9029 30.015 35.7995 29.6309 38.2042C29.4818 39.303 29.1508 40.3807 28.6388 41.4378C28.1478 42.495 27.4655 43.4483 26.5905 44.2983C25.5234 45.376 24.3821 46.0601 23.166 46.3505C21.9498 46.6408 20.6907 46.7858 19.3894 46.7858H15.5489L14.3327 52.6933H9.88403L14.4607 30.4ZM18.2052 33.9445L16.285 43.2723C16.413 43.2928 16.541 43.3034 16.669 43.3034C16.8182 43.3034 16.9679 43.3034 17.1171 43.3034C19.1654 43.3239 20.8725 43.1274 22.2378 42.7126C23.6032 42.2773 24.521 40.7644 24.9902 38.1731C25.3743 35.9966 24.9902 34.7424 23.8381 34.4109C22.707 34.0795 21.2886 33.924 19.5814 33.9445C19.3254 33.9651 19.0802 33.9756 18.8453 33.9756C18.6322 33.9756 18.4081 33.9756 18.1732 33.9756L18.2052 33.9445Z" fill="white"/>
<path d="M33.9052 24.32H37.8614L36.7433 30.2504H40.2982C42.2476 30.292 43.6999 30.7267 44.6557 31.5545C45.6304 32.3823 45.9171 33.9558 45.5158 36.274L43.595 46.6133H39.5815L41.4162 36.7397C41.6072 35.7045 41.5498 34.9699 41.2442 34.5352C40.9386 34.1005 40.2792 33.8832 39.2661 33.8832L36.084 33.8521L33.7332 46.6133H29.777L33.9052 24.32Z" fill="white"/>
<path d="M50.268 30.4H58.8453C61.3628 30.4205 63.187 31.1257 64.3181 32.5143C65.4491 33.9029 65.8223 35.7995 65.4382 38.2042C65.2891 39.303 64.9581 40.3807 64.4461 41.4378C63.9551 42.495 63.2728 43.4483 62.3978 44.2983C61.3308 45.376 60.1895 46.0601 58.9733 46.3505C57.7571 46.6408 56.498 46.7858 55.1967 46.7858H51.3562L50.14 52.6933H45.6913L50.268 30.4ZM54.0126 33.9445L52.0923 43.2723C52.2203 43.2928 52.3483 43.3034 52.4763 43.3034C52.6255 43.3034 52.7752 43.3034 52.9244 43.3034C54.9727 43.3239 56.6798 43.1274 58.0451 42.7126C59.4105 42.2773 60.3283 40.7644 60.7975 38.1731C61.1816 35.9966 60.7975 34.7424 59.6454 34.4109C58.5143 34.0795 57.0959 33.924 55.3888 33.9445C55.1327 33.9651 54.8875 33.9756 54.6526 33.9756C54.4395 33.9756 54.2155 33.9756 53.9806 33.9756L54.0126 33.9445Z" fill="white"/>
<defs>
<linearGradient id="paint0_linear_1_215" x1="-11.9982" y1="-5.57333" x2="46.2004" y2="48.5716" gradientUnits="userSpaceOnUse">
<stop stop-color="#7B14FF"/>
<stop offset="1" stop-color="#CCA4FF"/>
</linearGradient>
</defs>
</svg>
