<svg width="75" height="76" viewBox="0 0 75 76" fill="none" xmlns="http://www.w3.org/2000/svg">
<path d="M17.8646 53.9814L20.7368 51.1092L25.1598 55.5322L18.1241 55.0443C18.0033 55.0348 17.8886 54.9875 17.7963 54.9089C17.704 54.8304 17.6389 54.7247 17.6103 54.607C17.5816 54.4893 17.5909 54.3655 17.6367 54.2533C17.6826 54.1412 17.7627 54.0464 17.8656 53.9824L17.8646 53.9814Z" fill="white"/>
<path d="M25.2448 55.9629L18.2372 55.4751C17.8215 55.4363 17.4639 55.152 17.3175 54.7718C17.171 54.3917 17.2604 53.9404 17.5479 53.6367L20.4201 50.7645C20.5165 50.6714 20.6453 50.6194 20.7793 50.6194C20.9133 50.6194 21.0421 50.6714 21.1385 50.7645L25.5324 55.1585C25.5932 55.2418 25.626 55.3423 25.626 55.4455C25.626 55.5486 25.5932 55.6491 25.5324 55.7325C25.466 55.8399 25.3643 55.922 25.2448 55.9629ZM18.2372 54.3551L23.9805 54.7288L20.8218 51.7704L18.2372 54.3551Z" fill="#FF6C37"/>
<rect x="0.920605" width="73.6039" height="76" rx="13" fill="url(#paint0_linear_11_95)"/>
<path d="M50.999 24.5991L36.9657 39L33 34.8492C46.8118 20.7871 48.1971 22.0578 50.999 24.5991Z" fill="white"/>
<path d="M36.7009 38.999C36.5701 38.996 36.4452 38.9485 36.3506 38.8657L32.1475 35.0175C32.0529 34.9278 32 34.808 32 34.6833C32 34.5586 32.0529 34.4387 32.1475 34.3491C46.4787 21.2281 48.4346 21.8424 51.8201 24.6484C51.8768 24.6899 51.9221 24.7429 51.9525 24.8033C51.9829 24.8637 51.9976 24.9297 51.9953 24.9961C52.0171 25.1264 51.9624 25.2597 51.8497 25.3438L37.0807 38.8667C36.9772 38.9536 36.8414 39.0003 36.7009 38.999ZM33.2563 34.6968L36.7009 37.8505L50.7113 25.0232C50.2276 24.4681 49.5373 24.0958 48.7726 23.9775C48.0079 23.8592 47.2223 24.0031 46.5662 24.3818C44.0268 25.424 39.9408 28.6038 33.2563 34.6968Z" fill="#FF6C37"/>
<path d="M41.0203 43L37 39.0407L51.7407 25C55.7031 28.735 49.818 34.9698 41.0203 43Z" fill="white"/>
<path d="M41.238 43C41.1166 42.9907 41.0014 42.9447 40.909 42.8686L37.0435 39.2325C36.9855 39.0974 36.9855 38.9457 37.0435 38.8106C37.0024 38.6997 37.0024 38.5786 37.0435 38.4677L50.9151 25.1356C51.0115 25.0485 51.1389 25 51.2713 25C51.4037 25 51.531 25.0485 51.6275 25.1356C52.0767 25.533 52.4316 26.0187 52.6681 26.5597C52.9046 27.1007 53.0171 27.6843 52.9979 28.2708C52.9979 31.8278 48.7757 36.3068 41.5937 42.8419C41.4977 42.9332 41.3725 42.9891 41.238 43ZM38.1671 38.8106L41.2647 41.7866C46.7473 36.8068 51.9842 31.6688 52.011 28.1907C52.0408 27.4534 51.7872 26.7313 51.2985 26.1622L38.1671 38.8106Z" fill="#FF6C37"/>
<path d="M32.9892 35.0508L35.9401 37.6079C35.9589 37.6223 35.974 37.64 35.9843 37.6598C35.9947 37.6796 36 37.7012 36 37.7229C36 37.7447 35.9947 37.7662 35.9843 37.786C35.974 37.8059 35.9589 37.8236 35.9401 37.838L29.7141 38.9885C29.5885 39.012 29.4574 38.9993 29.3408 38.9522C29.2243 38.9052 29.1286 38.8265 29.0685 38.728C29.0084 38.6295 28.987 38.5167 29.0077 38.4068C29.0284 38.2968 29.0899 38.1957 29.1831 38.1189L32.8122 35C32.8122 35 32.9306 35 32.9892 35.0508Z" fill="white"/>
<path d="M29.9623 40C29.7909 39.9978 29.6229 39.9514 29.4744 39.8653C29.3258 39.7791 29.2017 39.656 29.1139 39.5077C29.015 39.32 28.9792 39.105 29.0117 38.895C29.0442 38.685 29.1433 38.4912 29.2942 38.3427L32.4304 35.1581C32.5435 35.0563 32.6899 35 32.8416 35C32.9933 35 33.1397 35.0563 33.2528 35.1581L35.824 37.7475C35.9763 37.8931 36.0361 38.1135 35.9783 38.3174C35.9204 38.5213 35.7507 38.6834 35.5415 38.732L30.1165 39.8971L29.9623 40ZM32.8421 36.0649L29.9372 38.9903L34.7452 37.9543L32.8421 36.0649Z" fill="#FF6C37"/>
<path d="M59 17.4018C57.0186 15.6022 53.906 15.5268 51.8281 17.225C49.7502 18.9232 49.395 21.8382 51.013 23.9356C52.6309 26.033 55.681 26.6206 58.0422 25.2888L54.3187 21.7831L59 17.4018Z" fill="white"/>
<path d="M55.273 26.9979C54.0262 26.9827 52.8117 26.6203 51.7808 25.9557C50.7498 25.2911 49.9481 24.3537 49.4755 23.2604C49.0032 22.1679 48.8793 20.9682 49.1191 19.8097C49.359 18.6511 49.952 17.5847 50.8248 16.7422C52.0253 15.6256 53.6403 15 55.3225 15C57.0046 15 58.6196 15.6256 59.8201 16.7422C59.9348 16.8338 60 16.9691 60 17.1119C59.9997 17.1821 59.9835 17.2515 59.9525 17.3152C59.9214 17.379 59.8763 17.4357 59.8201 17.4816L54.9626 21.8285L58.6507 25.2666C58.7105 25.3206 58.7553 25.3877 58.7814 25.462C58.8075 25.5363 58.8139 25.6155 58.8003 25.6927C58.7914 25.7672 58.7653 25.8389 58.7239 25.9028C58.6825 25.9667 58.6268 26.0212 58.5608 26.0624C57.5699 26.6492 56.4309 26.9731 55.2629 27L55.273 26.9979ZM55.273 15.974C53.1366 15.9846 51.2251 17.2024 50.4234 19.0637C49.6217 20.925 50.058 23.0675 51.5557 24.4973C52.3006 25.2073 53.2545 25.6876 54.2924 25.8752C55.3303 26.0628 56.4037 25.9491 57.3723 25.5489L53.8337 22.196C53.7775 22.1534 53.7321 22.0993 53.7009 22.0378C53.6696 21.9763 53.6534 21.909 53.6534 21.8407C53.6534 21.7725 53.6696 21.7051 53.7009 21.6436C53.7321 21.5821 53.7775 21.528 53.8337 21.4854L58.5113 17.0245C57.5815 16.3493 56.4444 15.9811 55.273 15.974Z" fill="#FF6C37"/>
<path d="M59.2336 17L54 21.9996L58.1628 26C58.5818 25.7689 58.9719 25.4924 59.3254 25.1761C60.4165 24.0679 61.0168 22.5957 60.9996 21.0702C60.9825 19.5447 60.3493 18.0853 59.2336 17Z" fill="white"/>
<path d="M58.0076 25.9812C57.9492 25.9844 57.8908 25.9743 57.8367 25.9515C57.7827 25.9288 57.7344 25.8941 57.6954 25.8499L54.1564 22.2681C54.1076 22.2286 54.0682 22.1785 54.0411 22.1215C54.0141 22.0645 54 22.002 54 21.9388C54 21.8755 54.0141 21.8131 54.0411 21.7561C54.0682 21.6991 54.1076 21.6489 54.1564 21.6094L58.5794 17.212C58.6221 17.1468 58.6801 17.0933 58.7482 17.0563C58.8163 17.0194 58.8924 17 58.9697 17C59.047 17 59.1231 17.0194 59.1912 17.0563C59.2593 17.0933 59.3173 17.1468 59.36 17.212C59.8792 17.7269 60.2917 18.3415 60.5733 19.0198C60.8549 19.698 61 20.4264 61 21.1621C61 21.8978 60.8549 22.6262 60.5733 23.3044C60.2917 23.9827 59.8792 24.5973 59.36 25.1122C59.0537 25.441 58.7032 25.7246 58.3189 25.9546C58.2221 26.0039 58.1112 26.0135 58.0076 25.9812ZM55.1458 21.9264L58.0857 24.9019C58.2879 24.7584 58.4794 24.6 58.6584 24.4278C59.5227 23.5555 60.0094 22.3717 60.0118 21.1364C60.0138 20.0309 59.6156 18.963 58.8926 18.1343L55.1458 21.9264Z" fill="#FF6C37"/>
<path d="M52.2971 25.5422C51.8979 25.1939 51.3709 25 50.8233 25C50.2757 25 49.7487 25.1939 49.3495 25.5422L36 37.9185L38.2104 40L52.3269 28.4986C52.5422 28.3069 52.7129 28.0763 52.8287 27.821C52.9444 27.5656 53.0027 27.291 52.9999 27.0139C52.9971 26.7368 52.9333 26.4633 52.8124 26.21C52.6916 25.9567 52.5162 25.7301 52.2971 25.5422Z" fill="white"/>
<path d="M38.5721 40.9972C38.4483 40.9939 38.33 40.9422 38.2405 40.852L36.1397 38.6394C36.0501 38.5417 36 38.4112 36 38.2754C36 38.1396 36.0501 38.0091 36.1397 37.9114L48.6594 24.7834C49.02 24.4041 49.4805 24.1476 49.9811 24.0472C50.4818 23.9469 50.9996 24.0073 51.4673 24.2205C51.935 24.4338 52.3311 24.7902 52.6041 25.2434C52.8772 25.6967 53.0147 26.2259 52.9988 26.7624C52.9844 27.1265 52.9012 27.484 52.754 27.8139C52.6069 28.1438 52.3987 28.4394 52.1417 28.6835L38.9038 40.9087C38.8075 40.9805 38.6891 41.0128 38.5721 40.9972ZM37.1077 38.2596L38.4892 39.7441L51.4784 27.8386C51.7996 27.5439 51.9914 27.1226 52.0038 26.674C52.0163 26.2253 51.8484 25.7865 51.5343 25.4809C51.2443 25.1768 50.8517 25.006 50.4425 25.006C50.0332 25.006 49.6406 25.1768 49.3506 25.4809L37.1077 38.2596Z" fill="#FF6C37"/>
<path d="M26.4479 52.3818C26.4119 52.4307 26.3924 52.4899 26.3924 52.5506C26.3924 52.6113 26.4119 52.6705 26.4479 52.7194L27.0104 55.1675C27.033 55.3116 27.0116 55.4591 26.9491 55.5908C26.8866 55.7226 26.7859 55.8325 26.66 55.9061C26.5346 55.9795 26.3892 56.0111 26.2446 55.9965C26.1001 55.9819 25.9639 55.9218 25.8557 55.8249L22 52.1106L34.0189 40H38.185L41 42.8142C36.6088 46.6524 31.7126 49.8715 26.4479 52.3818Z" fill="white"/>
<path d="M25.6967 56C25.3782 55.9941 25.0639 55.8713 24.853 55.6564L21.1691 52.1981C21.1163 52.1585 21.0737 52.1083 21.0445 52.0511C21.0152 51.994 21 51.9314 21 51.8679C21 51.8045 21.0152 51.7419 21.0445 51.6848C21.0737 51.6276 21.1163 51.5774 21.1691 51.5377L33.2618 40.1589C33.3295 40.0913 33.418 40.0453 33.5149 40.0272H37.705C37.8142 39.9909 37.9333 39.9909 38.0425 40.0272L40.8553 42.6677C40.9088 42.714 40.9495 42.7718 40.9739 42.8361C40.9983 42.9004 41.0058 42.9694 40.9955 43.037C40.9975 43.1026 40.9833 43.1677 40.9541 43.2273C40.9248 43.2869 40.8812 43.3394 40.8268 43.3806L40.6022 43.5657C36.1968 47.0134 31.3501 49.9313 26.1745 52.2516L26.7092 54.3901C26.7505 54.5551 26.7521 54.7267 26.7138 54.8923C26.6755 55.0579 26.5984 55.2134 26.4879 55.3475C26.3775 55.4815 26.2365 55.5907 26.0754 55.6671C25.9142 55.7435 25.7369 55.7852 25.5565 55.7891L25.6967 56ZM22.2659 51.8546L25.5839 54.9961C25.6148 55.022 25.6548 55.0363 25.6962 55.0363C25.7376 55.0363 25.7776 55.022 25.8085 54.9961C25.8292 54.9691 25.8403 54.9367 25.8403 54.9035C25.8403 54.8703 25.8292 54.8379 25.8085 54.8109L25.2464 52.514C25.2021 52.3491 25.2199 52.175 25.2968 52.021C25.3737 51.8671 25.5049 51.7429 25.6683 51.6694C30.7047 49.3801 35.4265 46.5253 39.73 43.1677L37.4234 41.0024H33.6552L22.2659 51.8546Z" fill="#FF6C37"/>
<path d="M38 40.1979L33 41L35.8959 38L38 40.1979Z" fill="white"/>
<path d="M32.5798 41.9998C32.4789 42.0022 32.3794 41.9784 32.2938 41.9316C32.2082 41.8848 32.1403 41.817 32.0985 41.7366C32.0345 41.6605 32 41.5684 32 41.4739C32 41.3794 32.0345 41.2873 32.0985 41.2112L35.5846 38.1353C35.6903 38.0484 35.83 38 35.9751 38C36.1202 38 36.2599 38.0484 36.3656 38.1353L38.9218 40.3693C38.9729 40.4401 39 40.5221 39 40.6059C39 40.6896 38.9729 40.7716 38.9218 40.8425C38.8968 40.9288 38.8438 41.007 38.7692 41.0676C38.6947 41.1283 38.6017 41.1689 38.5014 41.1845L32.4907 41.9998H32.5798ZM36.0963 39.134L34.143 40.8425L37.5096 40.3959L36.0963 39.134Z" fill="#FF6C37"/>
<path d="M38 40.4651L34.5395 40.9871C34.4469 41.0119 34.35 41.0008 34.2632 40.9554C34.1763 40.9101 34.1041 40.8329 34.0574 40.7352C34.0106 40.6376 33.9916 40.5248 34.0034 40.4134C34.0152 40.3021 34.057 40.1982 34.1226 40.1171L35.9145 38L38 40.4651Z" fill="white"/>
<path d="M34.0407 41C33.8546 40.9983 33.6723 40.9492 33.5123 40.8579C33.3523 40.7665 33.2204 40.636 33.1299 40.4797C33.0211 40.2923 32.979 40.076 33.0098 39.8635C33.0407 39.6511 33.1428 39.4541 33.3007 39.3025L35.3797 37.3043C35.4799 37.2138 35.6122 37.1635 35.7497 37.1635C35.8872 37.1635 36.0195 37.2138 36.1197 37.3043L38.5403 39.6309C38.6123 39.6965 38.663 39.7807 38.6862 39.8734C38.7093 39.9661 38.704 40.0632 38.6709 40.153C38.6378 40.2429 38.5783 40.3216 38.4996 40.3795C38.4209 40.4375 38.3263 40.4723 38.2275 40.4797L34.2414 40.9723L34.0407 41ZM34.0407 39.987L37.0593 39.6309L35.7214 38.345L34.0129 39.987H34.0407ZM58.8132 20.2001C58.7596 20.1137 58.6748 20.0493 58.575 20.019C58.4752 19.9888 58.3673 19.9948 58.2718 20.0359C58.2247 20.0588 58.1829 20.0907 58.1487 20.1294C58.1146 20.1682 58.0889 20.2132 58.0732 20.2617C58.0415 20.3595 58.0515 20.4654 58.101 20.5562C58.3007 20.9595 58.2451 21.4368 57.959 21.7878C57.9234 21.8216 57.8956 21.8621 57.8772 21.9068C57.8588 21.9515 57.8503 21.9994 57.8522 22.0474C57.8532 22.1437 57.8913 22.2362 57.959 22.3071C58.032 22.3348 58.1134 22.3348 58.1864 22.3071C58.2527 22.3231 58.3223 22.3213 58.3877 22.302C58.453 22.2826 58.5115 22.2464 58.5569 22.1973C58.7914 21.9213 58.9399 21.5873 58.9852 21.2337C59.0306 20.8801 58.9709 20.5225 58.8132 20.2001Z" fill="#FF6C37"/>
<defs>
<linearGradient id="paint0_linear_11_95" x1="-25.4376" y1="-34.9189" x2="75.0613" y2="75.8879" gradientUnits="userSpaceOnUse">
<stop stop-color="#FF6C37"/>
<stop offset="1" stop-color="#FF8D63"/>
</linearGradient>
</defs>
</svg>
