<svg width="76" height="76" viewBox="0 0 76 76" fill="none" xmlns="http://www.w3.org/2000/svg">
<rect x="0.464783" width="74.5986" height="76" rx="13" fill="url(#paint0_linear_2_218)"/>
<path d="M65.009 38C65.009 34.3414 60.5572 30.8704 53.7432 28.7128C55.3104 21.5363 54.6063 15.8373 51.5401 14.008C50.8359 13.5859 49.9956 13.3748 49.087 13.3748V15.8842C49.5867 15.8842 49.9956 15.978 50.3363 16.1891C51.8126 17.0803 52.4713 20.4106 51.9716 24.7258C51.858 25.7812 51.6536 26.9069 51.4038 28.0327C49.2687 27.4932 46.9293 27.0711 44.4763 26.8131C42.9999 24.7258 41.4781 22.8262 39.9336 21.1845C43.4996 17.7604 46.8384 15.8842 49.1097 15.8842V13.3513C46.1116 13.3513 42.1822 15.5559 38.2074 19.4021C34.2326 15.5793 30.3032 13.3983 27.3051 13.3983V15.9077C29.5764 15.9077 32.9153 17.7604 36.4812 21.1611C34.9594 22.8262 33.4149 24.7024 31.9613 26.7897C29.4856 27.0711 27.1461 27.4698 25.0111 28.0327C24.7612 26.9069 24.5795 25.8047 24.4432 24.7727C23.9208 20.4575 24.5568 17.1038 26.0332 16.2126C26.3511 16.0015 26.7827 15.9077 27.2824 15.9077V13.4217C26.3739 13.4217 25.5335 13.6328 24.8067 14.0549C21.7404 15.8842 21.059 21.5832 22.6262 28.7362C15.835 30.8939 11.4059 34.3648 11.4059 38.0234C11.4059 41.6821 15.8577 45.153 22.6716 47.3107C21.1044 54.4871 21.8085 60.1861 24.8748 62.0154C25.5789 62.4376 26.4193 62.6486 27.3278 62.6486C30.326 62.6486 34.2553 60.4441 38.2301 56.5979C42.2049 60.4206 46.1343 62.6017 49.1325 62.6017C50.041 62.6017 50.8814 62.3907 51.6082 61.9685C54.6745 60.1392 55.3559 54.4402 53.7887 47.2872C60.5799 45.1296 65.009 41.6586 65.009 38ZM50.7905 30.4717C50.3817 31.9258 49.882 33.4267 49.3142 34.9277C48.8599 34.0365 48.4056 33.1219 47.8832 32.2307C47.3835 31.3395 46.8384 30.4483 46.316 29.5805C47.8605 29.8385 49.3596 30.1199 50.7905 30.4717ZM45.7709 42.5029C44.9078 44.0273 44.0447 45.4579 43.1362 46.8182C41.5008 46.9589 39.8655 47.0527 38.2074 47.0527C36.5494 47.0527 34.914 46.9823 33.3014 46.8416C32.3929 45.5048 31.507 44.0742 30.6667 42.5498C29.8263 41.0723 29.0767 39.5713 28.3953 38.0704C29.0767 36.5694 29.8263 35.045 30.6667 33.5675C31.5298 32.043 32.3929 30.6124 33.3014 29.2522C34.9367 29.1115 36.5721 29.0177 38.2301 29.0177C39.8882 29.0177 41.5235 29.088 43.1362 29.2287C44.0447 30.5655 44.9305 31.9961 45.7709 33.5206C46.6113 34.9981 47.3608 36.499 48.0422 38C47.3608 39.501 46.5886 41.0254 45.7709 42.5029ZM49.3142 41.0254C49.9047 42.5263 50.4044 44.0508 50.8132 45.5048C49.3823 45.8566 47.8832 46.1615 46.316 46.396C46.8611 45.5283 47.3835 44.6371 47.8832 43.7224C48.3829 42.8547 48.8599 41.94 49.3142 41.0254ZM38.2301 53.0565C37.208 51.9777 36.2087 50.7582 35.1866 49.4448C36.1632 49.4918 37.1853 49.5152 38.1847 49.5152C39.2068 49.5152 40.2289 49.4918 41.2283 49.4448C40.2516 50.7816 39.2295 51.9777 38.2301 53.0565ZM30.0988 46.4195C28.5543 46.1849 27.0553 45.8801 25.6243 45.5283C26.0332 44.0742 26.5329 42.5732 27.1007 41.0723C27.5549 41.9635 28.0092 42.8781 28.5316 43.7693C29.054 44.684 29.5764 45.5517 30.0988 46.4195ZM38.1847 22.9434C39.2068 24.0223 40.2062 25.2418 41.2283 26.5551C40.2516 26.5082 39.2295 26.4848 38.2301 26.4848C37.208 26.4848 36.186 26.5082 35.1866 26.5551C36.1632 25.2418 37.1626 24.0223 38.1847 22.9434ZM30.0988 29.5805C29.5537 30.4483 29.0313 31.3395 28.5316 32.2541C28.0319 33.1453 27.5549 34.06 27.1007 34.9512C26.5101 33.4502 26.0105 31.9258 25.6016 30.4717C27.0325 30.1434 28.5316 29.8385 30.0988 29.5805ZM20.2186 43.7224C16.3574 42.0104 13.8589 39.7824 13.8589 38.0234C13.8589 36.2411 16.3574 34.0131 20.2186 32.3245C21.1498 31.9023 22.1946 31.5271 23.2394 31.1753C23.8527 33.3798 24.6704 35.6782 25.6925 38.0469C24.6931 40.3922 23.8754 42.6905 23.2622 44.8716C22.1946 44.5198 21.1498 44.1211 20.2186 43.7224ZM26.0786 59.8343C24.6022 58.9431 23.9436 55.6129 24.4432 51.2976C24.5568 50.2422 24.7612 49.1165 25.0111 47.9908C27.1461 48.5302 29.4856 48.9523 31.9386 49.2103C33.4149 51.2976 34.9367 53.1973 36.4812 54.8389C32.9153 58.263 29.5764 60.1392 27.3051 60.1392C26.8281 60.1158 26.4193 60.022 26.0786 59.8343ZM51.9943 51.2272C52.5167 55.5425 51.8808 58.8962 50.4044 59.7874C50.0864 59.9985 49.6549 60.0923 49.1552 60.0923C46.8839 60.0923 43.545 58.2396 39.9791 54.8389C41.5008 53.1738 43.0453 51.2976 44.499 49.2103C46.9747 48.9289 49.3142 48.5302 51.4492 47.9673C51.6763 49.0931 51.8808 50.1953 51.9943 51.2272ZM56.1963 43.7224C55.265 44.1446 54.2202 44.5198 53.1754 44.8716C52.5621 42.6671 51.7445 40.3687 50.7224 38C51.7218 35.6547 52.5394 33.3564 53.1527 31.1753C54.2429 31.5271 55.265 31.9023 56.219 32.3245C60.0802 34.0365 62.5787 36.2645 62.5787 38.0234C62.5787 39.7824 60.0575 42.0104 56.1963 43.7224Z" fill="#E0F8FF"/>
<path d="M38.2075 43.1596C40.9672 43.1596 43.2044 40.8496 43.2044 38C43.2044 35.1505 40.9672 32.8405 38.2075 32.8405C35.4478 32.8405 33.2106 35.1505 33.2106 38C33.2106 40.8496 35.4478 43.1596 38.2075 43.1596Z" fill="#E0F8FF"/>
<defs>
<linearGradient id="paint0_linear_2_218" x1="-49.2676" y1="137.108" x2="79.3154" y2="4.11097" gradientUnits="userSpaceOnUse">
<stop stop-color="#76F1F9" stop-opacity="0.64"/>
<stop offset="1" stop-color="#01529C"/>
</linearGradient>
</defs>
</svg>
