<svg width="76" height="76" viewBox="0 0 76 76" fill="none" xmlns="http://www.w3.org/2000/svg">
<rect x="0.453186" width="74.5986" height="76" rx="13" fill="url(#paint0_linear_1_212)"/>
<path d="M59.6885 40.7706C57.7578 40.7706 56.1062 41.2509 54.7106 41.9715C54.1988 40.9147 53.6871 40.002 53.594 39.3054C53.501 38.5128 53.3847 38.0325 53.501 37.0717C53.6173 36.111 54.1523 34.766 54.1523 34.6699C54.1523 34.5738 54.036 34.0934 52.9195 34.0694C51.8262 34.0694 50.8492 34.2856 50.7562 34.5978C50.6399 34.886 50.4305 35.5826 50.2909 36.3031C50.1049 37.3359 48.0811 41.0348 46.9413 42.9803C46.5691 42.2357 46.2435 41.5632 46.1737 41.0348C46.0807 40.2422 45.9644 39.7618 46.0807 38.801C46.197 37.8403 46.732 36.4953 46.732 36.3992C46.732 36.3031 46.6157 35.8228 45.4991 35.7987C44.4059 35.7987 43.4289 36.0149 43.3358 36.3271C43.2195 36.6154 43.1032 37.3359 42.8706 38.0325C42.638 38.729 39.963 44.8777 39.2651 46.4869C38.9162 47.3036 38.5906 47.9521 38.3812 48.4084C38.1486 48.8408 38.3812 48.4324 38.3579 48.4805C38.1719 48.8648 38.0556 49.0569 38.0556 49.0569C37.916 49.3451 37.7532 49.6093 37.6601 49.6093C37.6136 49.6093 37.4973 48.8648 37.6834 47.856C38.0788 45.7184 39.0558 42.3798 39.0325 42.2597C39.0325 42.2117 39.2186 41.6112 38.4045 41.323C37.6136 41.0348 37.3345 41.5151 37.2879 41.5151C37.2181 41.5151 37.1716 41.6833 37.1716 41.6833C37.1716 41.6833 38.0323 37.9364 35.5201 37.9364C33.9383 37.9364 31.7518 39.7138 30.6585 41.347C29.9607 41.7313 28.5185 42.5479 26.96 43.4366C26.3784 43.7729 25.7504 44.1331 25.1688 44.4454L25.0525 44.3013C21.9821 40.9147 16.3063 38.5368 16.5389 33.9974C16.632 32.3401 17.1903 27.9928 27.4252 22.7327C35.8225 18.4094 42.545 19.6103 43.708 22.2283C45.3596 25.9992 40.1258 32.9886 31.3796 33.9974C28.0532 34.3817 26.3086 33.0606 25.8667 32.5563C25.4015 32.0279 25.3317 32.0038 25.1688 32.1239C24.8897 32.268 25.0525 32.7484 25.1688 33.0126C25.4247 33.7091 26.4947 34.9581 28.3324 35.5586C29.9374 36.111 33.822 36.3992 38.544 34.5258C43.8243 32.4121 47.9648 26.5516 46.7552 21.6279C45.5224 16.632 37.4973 14.9988 29.9141 17.7849C25.4015 19.4422 20.5166 22.0362 17.0042 25.4468C12.8171 29.4819 12.1658 32.9886 12.445 34.4537C13.4219 39.6657 20.377 43.0763 23.1684 45.5742C23.0288 45.6463 22.8892 45.7184 22.7729 45.7904C21.3773 46.487 16.0737 49.3692 14.7478 52.3955C13.2359 55.8301 14.9804 58.304 16.1435 58.6403C19.7257 59.6731 23.401 57.8237 25.3782 54.7733C27.3554 51.723 27.1228 47.7839 26.1923 45.9826L26.1691 45.9105L27.2624 45.238C27.9602 44.8057 28.658 44.3973 29.2861 44.0611C28.9372 45.0218 28.7045 46.1747 28.565 47.832C28.4254 49.7775 29.193 52.2994 30.2165 53.3082C30.6585 53.7405 31.1935 53.7405 31.5424 53.7405C32.7287 53.7405 33.2637 52.7317 33.8453 51.5308C34.5664 50.0657 35.2177 48.3604 35.2177 48.3604C35.2177 48.3604 34.4035 52.9719 36.6134 52.9719C37.4275 52.9719 38.2184 51.8911 38.5906 51.3387C38.5906 51.3387 38.6138 51.3147 38.6603 51.2186C38.7069 51.1465 38.7534 51.0745 38.7999 51.0024V50.9784C39.1256 50.402 39.8467 49.0809 40.9167 46.8953C42.2891 44.0851 43.6382 40.5544 43.6382 40.5544C43.6382 40.5544 43.7778 41.4191 44.1732 42.8361C44.4059 43.6768 44.9176 44.5895 45.313 45.5022C44.9874 45.9585 44.8013 46.2227 44.8013 46.2227C44.5454 46.583 44.243 46.9433 43.9639 47.3276C42.8706 48.6726 41.568 50.2098 41.3819 50.6662C41.1726 51.1946 41.2191 51.5789 41.6145 51.8911C41.8936 52.1073 42.4287 52.1553 42.9637 52.1073C43.9406 52.0352 44.6385 51.795 44.9874 51.6269C45.5224 51.4347 46.1272 51.1225 46.732 50.6902C47.802 49.8735 48.4533 48.6966 48.3835 47.1595C48.3603 46.3188 48.0811 45.4542 47.7555 44.6615C47.8485 44.5174 47.9416 44.3733 48.0346 44.2292C49.7327 41.6833 51.0353 38.8491 51.0353 38.8491C51.0353 38.8491 51.1749 39.7137 51.5703 41.1308C51.7797 41.8514 52.1751 42.644 52.5473 43.4126C50.9655 44.7576 49.9653 46.2948 49.6164 47.3276C48.9883 49.201 49.4768 50.0657 50.4072 50.2578C50.8259 50.3539 51.4307 50.1377 51.8727 49.9456C52.431 49.7535 53.1055 49.4412 53.7336 48.9608C54.8036 48.1442 55.8271 46.9913 55.7806 45.4542C55.7573 44.7336 55.5712 44.0371 55.3154 43.3886C56.6645 42.8121 58.4091 42.4759 60.6422 42.7641C65.4107 43.3405 66.3644 46.4149 66.1783 47.7119C65.9923 48.9849 64.992 49.7054 64.6664 49.9216C64.3407 50.1378 64.2244 50.2098 64.2477 50.3539C64.2942 50.5941 64.4337 50.5701 64.7361 50.522C65.1316 50.45 67.2484 49.4652 67.3414 47.1114C67.4344 44.0611 64.6431 40.7465 59.6885 40.7706ZM22.8892 53.5724C21.3075 55.3498 19.0977 56.0223 18.144 55.4458C17.1205 54.8454 17.5159 52.2033 19.4699 50.3299C20.6562 49.177 22.1914 48.1202 23.1916 47.4717C23.4243 47.3276 23.7499 47.1114 24.1686 46.8712C24.2384 46.8232 24.2849 46.7992 24.2849 46.7992C24.3547 46.7512 24.4477 46.7031 24.5408 46.6551C25.2386 49.3451 24.5408 51.723 22.8892 53.5724ZM34.4035 45.4782C33.8453 46.8712 32.7055 50.426 32.0076 50.2098C31.4028 50.0417 31.0539 47.3516 31.8913 44.6856C32.31 43.3405 33.2405 41.7553 33.7755 41.1308C34.6362 40.1461 35.5899 39.8098 35.8225 40.2181C36.1016 40.7706 34.7525 44.6135 34.4035 45.4782ZM43.9174 50.1858C43.6848 50.3059 43.4754 50.402 43.3591 50.3299C43.2893 50.2819 43.4521 50.1137 43.4521 50.1137C43.4521 50.1137 44.6385 48.7927 45.1037 48.1923C45.3828 47.832 45.6852 47.4237 46.0341 46.9673V47.1114C46.0574 48.6966 44.5919 49.7535 43.9174 50.1858ZM51.2447 48.4565C51.0818 48.3123 51.1051 47.904 51.6634 46.6311C51.896 46.1267 52.4077 45.262 53.2916 44.4694C53.4079 44.8057 53.4545 45.1179 53.4545 45.4301C53.4545 47.3997 52.0821 48.1442 51.2447 48.4565Z" fill="white"/>
<defs>
<linearGradient id="paint0_linear_1_212" x1="69.0839" y1="2.56757" x2="1.7516" y2="70.7637" gradientUnits="userSpaceOnUse">
<stop stop-color="#CF649A"/>
<stop offset="1" stop-color="#FFD6EB"/>
</linearGradient>
</defs>
</svg>
