<svg width="75" height="76" viewBox="0 0 75 76" fill="none" xmlns="http://www.w3.org/2000/svg">
<rect x="0.441559" width="73.6039" height="76" rx="13" fill="url(#paint0_linear_1_213)"/>
<path d="M38.6858 21.28C31.1317 21.28 26.4314 25.1158 24.5369 32.8117C27.3667 28.976 30.6761 27.5345 34.4411 28.4873C36.5994 29.0248 38.1342 30.6373 39.8368 32.3964C42.6187 35.2549 45.8321 38.5776 52.8346 38.5776C60.3887 38.5776 65.089 34.7418 66.9835 27.0459C64.1537 30.8816 60.8443 32.3231 57.0793 31.3703C54.921 30.8328 53.3862 29.2203 51.6835 27.4612C48.9017 24.6027 45.7122 21.28 38.6858 21.28ZM24.5369 38.5776C16.9828 38.5776 12.2825 42.4134 10.388 50.1093C13.2178 46.2736 16.5272 44.8321 20.2922 45.7849C22.4505 46.3224 23.9853 47.9349 25.688 49.694C28.4698 52.5525 31.6833 55.8752 38.6858 55.8752C46.2398 55.8752 50.9401 52.0394 52.8346 44.3435C50.0048 48.1792 46.6954 49.6207 42.9304 48.6679C40.7721 48.1304 39.2373 46.5179 37.5347 44.7588C34.7528 41.9003 31.5634 38.5776 24.5369 38.5776Z" fill="white"/>
<defs>
<linearGradient id="paint0_linear_1_213" x1="5.91212" y1="6.08" x2="75.3228" y2="74.7081" gradientUnits="userSpaceOnUse">
<stop stop-color="#32FFF3"/>
<stop offset="1" stop-color="#00DAFF"/>
</linearGradient>
</defs>
</svg>
